<svg width="321" height="321" viewBox="0 0 321 321" fill="none" xmlns="http://www.w3.org/2000/svg">
<g clip-path="url(#clip0_3_42)">
<path d="M156.1 163.108L155.745 168.96L126.367 188.467L115.727 194.612L115.82 221.573C115.82 225.284 113.085 228.213 109.277 228.116C105.566 228.213 102.929 225.284 103.027 221.573L102.889 202.025L84.7649 212.491C80.9564 214.639 77.1478 213.663 75.097 209.854C72.9485 206.143 74.0228 202.53 77.7337 200.284L95.853 189.863L78.9056 179.971C75.7806 178.213 74.6087 174.503 76.4642 171.28C78.222 167.862 82.3235 167.081 85.3509 168.936L108.709 182.469L119.335 176.358L150.948 160.552L156.1 163.108ZM218.066 99.6002L218.204 119.302L236.425 108.78C240.038 106.631 243.847 107.51 245.898 111.221C248.242 114.932 247.167 118.741 243.359 120.889L225.229 131.401L242.187 141.299C245.312 143.057 246.484 146.768 244.726 149.893C242.87 153.311 238.867 154.19 235.742 152.335L212.471 138.799L201.757 145.01L170.301 160.581L164.924 157.893L165.29 152.281L194.824 132.803L205.366 126.715L205.273 99.6002C205.273 95.9869 208.007 93.0572 211.913 93.1549C215.527 93.0572 218.163 95.9869 218.066 99.6002Z" fill="#00C0E8"/>
<path d="M201.855 176.358L212.382 182.426L235.742 168.838C238.867 166.983 242.87 167.764 244.726 171.182C246.484 174.405 245.312 178.116 242.187 179.874L225.176 189.802L243.359 200.284C247.07 202.432 248.242 206.143 246.093 209.756C244.042 213.663 240.136 214.542 236.425 212.491L218.203 201.993L218.066 221.475C218.163 225.186 215.527 228.116 211.913 228.018C208.007 228.116 205.273 225.186 205.273 221.475L205.365 194.597L194.726 188.467L165.28 168.837L164.745 160.635L164.924 157.893L201.855 176.358ZM115.82 99.6978L115.727 126.614L126.269 132.706L155.737 152.167L156.249 160.635L156.1 163.108L119.433 144.913L108.873 138.804L85.3509 152.432C82.3235 154.288 78.2219 153.409 76.4641 149.991C74.6087 146.866 75.7805 143.155 78.9055 141.397L96.0531 131.388L77.7337 120.792C73.9251 118.741 72.9485 114.835 75.1946 111.221C77.4407 107.51 81.054 106.631 84.8626 108.78L102.889 119.196L103.027 99.6978C102.929 96.0846 105.566 93.1549 109.277 93.2525C113.085 93.1549 115.82 96.0846 115.82 99.6978Z" fill="#00C0E8"/>
<path d="M160.448 259.268C164.745 259.366 167.577 256.631 167.577 252.139V204.092L164.745 160.635L167.577 117.178V69.0338C167.577 64.6393 164.745 61.9049 160.448 62.0025C156.249 62.0025 153.613 64.7369 153.613 69.0338V117.081L156.249 160.635L153.613 204.19V252.139C153.613 256.534 156.249 259.268 160.448 259.268ZM193.359 82.4127C191.503 79.19 187.695 78.4088 184.57 80.2643L160.546 94.0338L136.523 80.2643C133.398 78.4088 129.589 79.19 127.734 82.4127C125.683 85.733 127.05 89.5416 130.077 91.3971L154.784 105.46C156.542 106.436 158.495 106.924 160.546 106.924C162.499 106.924 164.648 106.436 166.308 105.46L191.015 91.3971C194.14 89.5416 195.409 85.733 193.359 82.4127ZM127.734 238.858C129.589 242.081 133.398 242.764 136.523 241.006L160.546 227.237L184.57 241.006C187.695 242.764 191.503 242.081 193.359 238.858C195.409 235.538 194.14 231.729 191.015 229.874L166.308 215.811C164.55 214.835 162.597 214.346 160.546 214.346C158.593 214.346 156.445 214.835 154.784 215.811L130.077 229.874C127.05 231.729 125.683 235.538 127.734 238.858Z" fill="#00C0E8"/>
</g>
<defs>
<clipPath id="clip0_3_42">
<rect width="173.19" height="197.368" fill="white" transform="translate(74 62)"/>
</clipPath>
</defs>
</svg>
