<svg width="321" height="321" viewBox="0 0 321 321" fill="none" xmlns="http://www.w3.org/2000/svg">
<g clip-path="url(#clip0_7_59)">
<path d="M72.125 241.887C72.125 255.656 80.2305 263.566 94.1953 263.566H227.105C240.973 263.566 249.078 255.656 249.078 241.887V132.609L235.211 131.73V239.934C235.211 246.281 231.793 249.797 225.641 249.797H95.6602C89.4102 249.797 85.9922 246.281 85.9922 239.934V131.73L72.125 132.609V241.887ZM44 154.387C44 158.195 46.832 160.93 51.1289 160.93C52.8867 160.93 54.2539 160.246 55.5234 159.27L157.184 74.0156C159.234 72.1602 161.871 72.0625 164.02 74.0156L265.68 159.27C266.852 160.246 268.219 160.93 270.074 160.93C274.273 160.93 277.105 158.195 277.105 154.387C277.105 151.75 276.129 149.992 273.98 148.234L172.32 62.7852C165.094 56.6328 156.207 56.6328 148.883 62.7852L47.125 148.234C44.9766 149.992 44 151.75 44 154.387ZM224.566 110.539L249.078 131.34V86.125C249.078 81.9258 246.344 79.1914 242.047 79.1914H231.598C227.398 79.1914 224.566 81.9258 224.566 86.125V110.539Z" fill="#FF8D28"/>
<path d="M104.254 219.133C104.254 227.043 109.234 231.633 117.828 231.633H203.473C211.969 231.633 217.047 227.043 217.047 219.133V142.961L166.949 101.066C163.043 97.8438 158.16 97.8438 154.352 101.066L104.254 142.961V219.133ZM118.121 213.176V149.699L157.477 116.691C159.234 115.227 161.969 115.129 163.727 116.691L203.18 149.797V213.176C203.18 216.203 201.52 217.863 198.492 217.863H122.711C119.781 217.863 118.121 216.203 118.121 213.176Z" fill="#FF8D28"/>
<path d="M136.285 190.617C136.285 196.281 139.996 199.797 145.953 199.797H175.25C181.305 199.797 184.918 196.281 184.918 190.617V158.684L166.168 142.863C162.75 140.031 158.453 140.031 155.133 142.863L136.285 158.684V190.617ZM149.859 184.172V164.934L158.258 157.902C159.723 156.633 161.578 156.633 162.945 157.902L171.344 164.934V184.172C171.344 185.637 170.66 186.418 169.098 186.418H152.105C150.641 186.418 149.859 185.637 149.859 184.172Z" fill="#FF8D28"/>
</g>
<defs>
<clipPath id="clip0_7_59">
<rect width="233.105" height="205.566" fill="white" transform="translate(44 58)"/>
</clipPath>
</defs>
</svg>
