<svg width="321" height="321" viewBox="0 0 321 321" fill="none" xmlns="http://www.w3.org/2000/svg">
<g clip-path="url(#clip0_1_13)">
<path d="M161.191 249.855C196.641 249.855 211.582 245.363 225.742 232.18C245.664 214.016 257.285 187.746 257.285 159.816C257.285 137.258 249.766 115.773 234.238 98.0977C230.625 93.6055 226.914 93.2148 223.008 96.0469C208.555 106.984 191.855 112.453 161.191 112.453C130.43 112.453 113.73 106.984 99.375 96.0469C95.4688 93.2148 91.6602 93.6055 88.0469 98.0977C72.6172 115.773 65 137.258 65 159.816C65 187.746 76.6211 214.016 96.543 232.18C110.703 245.363 125.644 249.855 161.191 249.855Z" fill="white" fill-opacity="0.425"/>
<path d="M161.191 99.1719C188.34 99.1719 207.285 93.7031 207.285 86.6719C207.285 79.543 188.34 74.2695 161.191 74.2695C133.945 74.2695 115 79.543 115 86.6719C115 93.7031 133.945 99.1719 161.191 99.1719Z" fill="white" fill-opacity="0.85"/>
</g>
<defs>
<clipPath id="clip0_1_13">
<rect width="192.285" height="176.855" fill="white" transform="translate(65 73)"/>
</clipPath>
</defs>
</svg>
