<svg width="321" height="321" viewBox="0 0 321 321" fill="none" xmlns="http://www.w3.org/2000/svg">
<g opacity="0.5">
<path d="M256.417 57H156.201C156.201 68.9981 160.967 80.5049 169.451 88.9888C177.935 97.4728 189.442 102.239 201.44 102.239H219.901V120.062C219.917 145.024 240.149 165.256 265.111 165.272V65.6942C265.111 60.8925 261.218 57 256.417 57Z" fill="#2684FF"/>
<path d="M206.831 106.934H106.615C106.631 131.896 126.863 152.128 151.825 152.144H170.286V170.025C170.318 194.987 190.563 215.206 215.525 215.206V115.628C215.525 110.826 211.632 106.934 206.831 106.934Z" fill="url(#paint0_linear_14_7)"/>
<path d="M157.216 156.839H57C57 181.824 77.2542 202.078 102.239 202.078H120.758V219.901C120.774 244.841 140.97 265.063 165.91 265.111V165.533C165.91 160.731 162.017 156.839 157.216 156.839Z" fill="url(#paint1_linear_14_7)"/>
</g>
<defs>
<linearGradient id="paint0_linear_14_7" x1="10783.1" y1="124.323" x2="6546.01" y2="4545.57" gradientUnits="userSpaceOnUse">
<stop offset="0.18" stop-color="#0052CC"/>
<stop offset="1" stop-color="#2684FF"/>
</linearGradient>
<linearGradient id="paint1_linear_14_7" x1="11020.4" y1="206.105" x2="6119.11" y2="5028.3" gradientUnits="userSpaceOnUse">
<stop offset="0.18" stop-color="#0052CC"/>
<stop offset="1" stop-color="#2684FF"/>
</linearGradient>
</defs>
</svg>
