<svg width="321" height="321" viewBox="0 0 321 321" fill="none" xmlns="http://www.w3.org/2000/svg">
<g clip-path="url(#clip0_14_12)">
<g clip-path="url(#clip1_14_12)">
<path d="M105.352 267.473C110.137 267.473 112.969 264.738 121.758 256.242L159.941 218.645C160.43 218.156 161.309 218.156 161.699 218.645L199.883 256.242C208.672 264.738 211.504 267.473 216.289 267.473C222.832 267.473 226.641 263.176 226.641 255.559V86.0273C226.641 67.4727 217.363 58 199.004 58H122.637C104.277 58 95 67.4727 95 86.0273V255.559C95 263.176 98.8086 267.473 105.352 267.473ZM113.359 241.105C111.992 242.473 110.43 242.082 110.43 240.129V86.2227C110.43 77.8242 114.824 73.4297 123.418 73.4297H198.32C206.816 73.4297 211.211 77.8242 211.211 86.2227V240.129C211.211 242.082 209.746 242.473 208.281 241.105L165.996 200.09C162.871 197.062 158.77 197.062 155.645 200.09L113.359 241.105Z" fill="#FF383C"/>
</g>
</g>
<defs>
<clipPath id="clip0_14_12">
<rect width="131.641" height="209.863" fill="white" transform="translate(95 58)"/>
</clipPath>
<clipPath id="clip1_14_12">
<rect width="131.641" height="209.863" fill="white" transform="translate(95 58)"/>
</clipPath>
</defs>
</svg>
