<svg width="321" height="321" viewBox="0 0 321 321" fill="none" xmlns="http://www.w3.org/2000/svg">
<g clip-path="url(#clip0_1_91)">
<path d="M90.565 219.321C92.5443 219.321 94.1864 217.685 94.1864 215.671V206.65C94.1864 204.636 92.5443 203 90.565 203C88.5438 203 86.9013 204.636 86.9013 206.65V215.671C86.9013 217.685 88.5438 219.321 90.565 219.321ZM111.2 227.922C112.632 229.307 114.948 229.349 116.379 227.922L122.823 221.503C124.212 220.118 124.212 217.769 122.823 216.342C121.433 214.958 119.075 214.958 117.685 216.342L111.2 222.803C109.81 224.188 109.81 226.538 111.2 227.922ZM119.749 248.523C119.749 250.495 121.433 252.131 123.412 252.131H132.466C134.446 252.131 136.088 250.495 136.088 248.523C136.088 246.551 134.446 244.873 132.466 244.873H123.412C121.433 244.873 119.749 246.551 119.749 248.523ZM111.2 269.123C109.81 270.55 109.81 272.858 111.2 274.242L117.685 280.745C119.075 282.13 121.433 282.046 122.823 280.703C124.212 279.277 124.212 276.969 122.823 275.585L116.338 269.123C114.948 267.739 112.632 267.781 111.2 269.123ZM90.565 277.725C88.5438 277.725 86.9013 279.361 86.9013 281.333V290.395C86.9013 292.367 88.5438 294.004 90.565 294.004C92.5443 294.004 94.1864 292.367 94.1864 290.395V281.333C94.1864 279.361 92.5443 277.725 90.565 277.725ZM69.8881 269.123C68.4563 267.781 66.098 267.739 64.7083 269.123L58.2652 275.543C56.8756 276.927 56.8756 279.235 58.2231 280.662C59.6128 282.004 62.0132 282.088 63.4029 280.703L69.846 274.242C71.2357 272.858 71.2357 270.55 69.8881 269.123ZM61.3394 248.523C61.3394 246.551 59.6549 244.873 57.6757 244.873H48.6216C46.6424 244.873 45 246.551 45 248.523C45 250.495 46.6424 252.131 48.6216 252.131H57.6757C59.6549 252.131 61.3394 250.495 61.3394 248.523ZM69.846 227.922C71.2357 226.58 71.2357 224.146 69.8881 222.803L63.445 216.342C62.0974 215 59.697 214.958 58.3074 216.342C56.9176 217.769 56.9176 220.118 58.2652 221.461L64.7083 227.922C66.098 229.307 68.4142 229.307 69.846 227.922Z" fill="#FFCC00"/>
<path d="M90.5228 269.879C102.356 269.879 111.958 260.312 111.958 248.523C111.958 236.733 102.356 227.125 90.5228 227.125C78.6895 227.125 69.088 236.733 69.088 248.523C69.088 260.312 78.6895 269.879 90.5228 269.879Z" fill="#FFCC00"/>
</g>
<g clip-path="url(#clip1_1_91)">
<path d="M218.565 162.321C220.544 162.321 222.186 160.685 222.186 158.671V149.65C222.186 147.636 220.544 146 218.565 146C216.544 146 214.901 147.636 214.901 149.65V158.671C214.901 160.685 216.544 162.321 218.565 162.321ZM239.2 170.922C240.632 172.307 242.948 172.349 244.379 170.922L250.823 164.503C252.212 163.118 252.212 160.769 250.823 159.342C249.433 157.958 247.075 157.958 245.685 159.342L239.2 165.803C237.81 167.188 237.81 169.538 239.2 170.922ZM247.749 191.523C247.749 193.495 249.433 195.131 251.412 195.131H260.466C262.446 195.131 264.088 193.495 264.088 191.523C264.088 189.551 262.446 187.873 260.466 187.873H251.412C249.433 187.873 247.749 189.551 247.749 191.523ZM239.2 212.123C237.81 213.55 237.81 215.858 239.2 217.242L245.685 223.745C247.075 225.13 249.433 225.046 250.823 223.703C252.212 222.277 252.212 219.969 250.823 218.585L244.338 212.123C242.948 210.739 240.632 210.781 239.2 212.123ZM218.565 220.725C216.544 220.725 214.901 222.361 214.901 224.333V233.395C214.901 235.367 216.544 237.004 218.565 237.004C220.544 237.004 222.186 235.367 222.186 233.395V224.333C222.186 222.361 220.544 220.725 218.565 220.725ZM197.888 212.123C196.456 210.781 194.098 210.739 192.708 212.123L186.265 218.543C184.876 219.927 184.876 222.235 186.223 223.662C187.613 225.004 190.013 225.088 191.403 223.703L197.846 217.242C199.236 215.858 199.236 213.55 197.888 212.123ZM189.339 191.523C189.339 189.551 187.655 187.873 185.676 187.873H176.622C174.642 187.873 173 189.551 173 191.523C173 193.495 174.642 195.131 176.622 195.131H185.676C187.655 195.131 189.339 193.495 189.339 191.523ZM197.846 170.922C199.236 169.58 199.236 167.146 197.888 165.803L191.445 159.342C190.097 158 187.697 157.958 186.307 159.342C184.918 160.769 184.918 163.118 186.265 164.461L192.708 170.922C194.098 172.307 196.414 172.307 197.846 170.922Z" fill="#FFCC00"/>
<path d="M218.523 212.879C230.356 212.879 239.958 203.312 239.958 191.523C239.958 179.733 230.356 170.125 218.523 170.125C206.69 170.125 197.088 179.733 197.088 191.523C197.088 203.312 206.69 212.879 218.523 212.879Z" fill="#FFCC00"/>
</g>
<g clip-path="url(#clip2_1_91)">
<path d="M91.0245 128.327C100.759 128.327 107.314 121.018 107.314 110.571V77.7561C107.314 67.2594 100.759 60 91.0245 60C81.2411 60 74.6863 67.2594 74.6863 77.7561V110.571C74.6863 121.018 81.2411 128.327 91.0245 128.327ZM91.0245 145.739C111.814 145.739 126 131.76 126 111.355V101.398C126 99.3381 124.386 97.7194 122.331 97.7194C120.277 97.7194 118.614 99.3381 118.614 101.398V111.061C118.614 127.787 107.754 138.872 91.0245 138.872C74.246 138.872 63.3865 127.787 63.3865 111.061V101.398C63.3865 99.3381 61.7722 97.7194 59.6688 97.7194C57.6143 97.7194 56 99.3381 56 101.398V111.355C56 131.76 70.1859 145.739 91.0245 145.739ZM69.1586 164.476H112.842C114.896 164.476 116.559 162.858 116.559 160.798C116.559 158.738 114.896 157.07 112.842 157.07H69.1586C67.1041 157.07 65.441 158.738 65.441 160.798C65.441 162.858 67.1041 164.476 69.1586 164.476ZM91.0245 162.858C93.079 162.858 94.6933 161.19 94.6933 159.13V144.072C94.6933 142.011 93.079 140.344 91.0245 140.344C88.97 140.344 87.3068 142.011 87.3068 144.072V159.13C87.3068 161.19 88.97 162.858 91.0245 162.858Z" fill="#FF383C"/>
</g>
<g clip-path="url(#clip3_1_91)">
<path d="M201.297 99.1519C201.297 101.635 199.664 102.916 197.195 102.916H194.088C191.58 102.916 189.987 101.635 189.987 99.1519V74.9526C194.807 74.6316 198.351 73.8386 201.297 72.7279V99.1519ZM247.013 74.9526V99.1519C247.013 101.635 245.42 102.916 242.911 102.916H239.805C237.336 102.916 235.704 101.635 235.704 99.1519V72.7279C238.649 73.8386 242.192 74.6316 247.013 74.9526Z" fill="white"/>
<path d="M215.792 48.1806C215.792 57.0295 210.575 63.1957 204.044 66.9995C201.058 68.6906 197.796 69.9783 192.575 70.5962C193.39 68.6853 193.85 66.4687 193.85 63.9565C193.85 55.8409 187.198 47.5942 178.046 46.1224C178.854 44.5531 179.711 43.2478 180.31 42.4949C185.407 35.3677 193.013 32.0043 199.823 32.0844C208.624 32.1645 215.792 37.9704 215.792 48.1806ZM256.69 42.4949C257.289 43.2478 258.146 44.5531 258.954 46.1224C249.802 47.5942 243.15 55.8409 243.15 63.9565C243.15 66.4687 243.61 68.6853 244.425 70.5962C239.204 69.9783 235.943 68.6906 232.956 66.9995C226.425 63.1957 221.208 57.0295 221.208 48.1806C221.208 37.9704 228.376 32.1645 237.177 32.0844C243.987 32.0043 251.593 35.3677 256.69 42.4949ZM204.761 41.3337L198.907 46.2987C198.071 46.9794 197.991 48.1806 198.668 49.0215C199.345 49.8623 200.58 49.9424 201.336 49.2617L207.27 44.2967C208.106 43.616 208.146 42.4148 207.429 41.614C206.792 40.7732 205.597 40.653 204.761 41.3337ZM229.571 41.614C228.854 42.4148 228.894 43.616 229.73 44.2967L235.664 49.2617C236.42 49.9424 237.655 49.8623 238.332 49.0215C239.009 48.1806 238.929 46.9794 238.093 46.2987L232.239 41.3337C231.403 40.653 230.208 40.7732 229.571 41.614Z" fill="white"/>
<path d="M178.319 75.568C184.531 75.568 189.987 71.7242 189.987 63.9565C189.987 57.0295 183.496 49.7021 175.093 49.7021C167.925 49.7021 163.863 55.3879 163.863 61.1937C163.863 69.8824 171.19 75.568 178.319 75.568ZM176.367 69.4822C175.212 70.483 173.341 69.4822 170.951 66.6392C168.681 63.7963 168.084 61.8344 169.159 60.8734C170.354 59.8324 172.186 60.7933 174.575 63.6762C176.845 66.5992 177.482 68.5211 176.367 69.4822ZM258.681 75.568C265.81 75.568 273.137 69.8824 273.137 61.1937C273.137 55.3879 269.075 49.7021 261.907 49.7021C253.504 49.7021 247.013 57.0295 247.013 63.9565C247.013 71.7242 252.469 75.568 258.681 75.568ZM260.633 69.4822C259.518 68.5211 260.155 66.5992 262.425 63.6762C264.814 60.7933 266.646 59.8324 267.841 60.8734C268.916 61.8344 268.319 63.7963 266.049 66.6392C263.659 69.4822 261.787 70.483 260.633 69.4822Z" fill="#9D9D9D"/>
</g>
<defs>
<clipPath id="clip0_1_91">
<rect width="91.0877" height="91.0877" fill="white" transform="translate(45 203)"/>
</clipPath>
<clipPath id="clip1_1_91">
<rect width="91.0877" height="91.0877" fill="white" transform="translate(173 146)"/>
</clipPath>
<clipPath id="clip2_1_91">
<rect width="70" height="111" fill="white" transform="translate(56 60)"/>
</clipPath>
<clipPath id="clip3_1_91">
<rect width="117" height="79" fill="white" transform="translate(160 28)"/>
</clipPath>
</defs>
</svg>
