<svg width="321" height="321" viewBox="0 0 321 321" fill="none" xmlns="http://www.w3.org/2000/svg">
<g opacity="0.5">
<path d="M204 57L72 68L63.5 75.5L79 224.5L98 263L224 257L261 250.5V93.5L224 68L204 57Z" fill="white"/>
<path d="M91.7593 88.9147C98.6283 94.5129 101.23 94.1175 114.198 93.2504L236.451 85.9178C239.053 85.9178 236.888 83.3164 236.014 82.8794L215.706 68.2074C211.841 65.1689 206.637 61.742 196.695 62.5675L78.3475 71.2389C74.011 71.6343 73.1438 73.8056 74.8783 75.5399L91.7593 88.9147ZM99.0931 117.426V246.013C99.0931 252.915 102.528 255.517 110.299 255.08L244.659 247.31C252.43 246.873 253.332 242.142 253.332 236.509V108.79C253.332 103.15 251.161 100.153 246.394 100.59L106.004 108.79C100.8 109.227 99.1001 111.786 99.1001 117.392L99.0931 117.426ZM231.719 124.287C232.587 128.193 231.719 132.057 227.813 132.528L221.347 133.833V228.746C215.706 231.785 210.544 233.519 206.242 233.519C199.304 233.519 197.569 231.348 192.4 224.882L150.048 158.404V222.718L163.453 225.756C163.453 225.756 163.453 233.526 152.65 233.526L122.836 235.26C121.969 233.526 122.836 229.19 125.875 228.358L133.646 226.186V141.172L122.843 140.305C121.976 136.399 124.147 130.801 130.177 130.371L162.156 128.2L206.242 195.545V135.962L195.002 134.658C194.134 129.927 197.569 126.458 201.905 126.056L231.719 124.287ZM68.4118 59.5776L191.533 50.5108C206.637 49.2066 210.544 50.0737 220.042 56.9762L259.362 84.6137C265.828 89.3448 268 90.6489 268 95.8171V247.317C268 256.821 264.531 262.419 252.458 263.286L109.424 271.923C100.391 272.36 96.0541 271.056 91.2806 265.02L62.3338 227.442C57.1648 220.54 55 215.371 55 209.343V74.6866C55 66.9171 58.4692 60.4517 68.4049 59.5845L68.4118 59.5776Z" fill="black"/>
</g>
</svg>
