<svg width="321" height="321" viewBox="0 0 321 321" fill="none" xmlns="http://www.w3.org/2000/svg">
<path d="M95.0328 82.5901C96.3688 117.031 99.7535 189.03 102.604 201.5C105.454 213.97 115.371 238.168 119.973 248.708" stroke="#DDDDDD" stroke-width="10"/>
<path d="M229.53 82.5901C228.194 117.031 224.809 189.03 221.959 201.5C219.109 213.97 209.192 238.168 204.59 248.708" stroke="#DDDDDD" stroke-width="10"/>
<path d="M118 78C118.957 113.472 121.38 187.626 123.421 200.469C125.462 213.312 139.705 240.144 143 251" stroke="#DDDDDD" stroke-width="10"/>
<path d="M208 78C207.043 113.472 204.62 187.626 202.579 200.469C200.538 213.312 186.295 240.144 183 251" stroke="#DDDDDD" stroke-width="10"/>
<path d="M79 84C94.6667 75.3333 133.7 68 160.5 68C187.3 68 225.667 75.3333 242 84" stroke="#DDDDDD" stroke-width="20"/>
<path d="M116 248C125.842 249.333 152.658 253 165.184 253C177.711 253 200.447 249.333 208.5 248" stroke="#DDDDDD" stroke-width="8"/>
<path d="M221.5 188L203 202C195.326 202.667 176.995 204 165.058 204C153.121 204 131.379 202.667 122 202L103.5 188" stroke="#DDDDDD" stroke-width="8"/>
<path d="M218 213L191 229.743C183.977 230.41 176.266 231.743 165.341 231.743C154.416 231.743 144.584 230.41 136 229.743L107 213" stroke="#DDDDDD" stroke-width="8"/>
<g opacity="0.5" clip-path="url(#clip0_15_2)">
<path d="M142 141.37C142 154.068 150.509 157.21 151.888 179.266C151.955 180.457 152.695 181.217 153.973 181.217H175.027C176.339 181.217 177.045 180.457 177.146 179.266C178.525 157.21 187 154.068 187 141.37C187 129.961 177.078 121 164.5 121C151.922 121 142 129.961 142 141.37Z" fill="#FFCC00"/>
</g>
<defs>
<clipPath id="clip0_15_2">
<rect width="45" height="79" fill="white" transform="translate(142 121)"/>
</clipPath>
</defs>
</svg>
