<svg width="321" height="321" viewBox="0 0 321 321" fill="none" xmlns="http://www.w3.org/2000/svg">
<g clip-path="url(#clip0_14_44)">
<path d="M260.219 160.609C260.219 215.492 215.59 260.219 160.609 260.219C105.727 260.219 61 215.492 61 160.609C61 105.629 105.727 61 160.609 61C215.59 61 260.219 105.629 260.219 160.609ZM202.699 109.828L145.082 137.953C141.957 139.418 139.809 141.566 138.148 144.984L109.828 202.797C106.703 209.438 111.879 214.711 118.617 211.488L176.332 183.168C179.555 181.703 181.801 179.359 183.363 176.234L211.488 118.52C214.809 111.684 209.828 106.41 202.699 109.828ZM173.109 160.707C173.109 167.543 167.543 173.109 160.707 173.109C153.969 173.109 148.402 167.543 148.402 160.707C148.402 153.871 153.969 148.402 160.707 148.402C167.543 148.402 173.109 153.871 173.109 160.707Z" fill="#00C0E8"/>
</g>
<defs>
<clipPath id="clip0_14_44">
<rect width="199.219" height="199.316" fill="white" transform="translate(61 61)"/>
</clipPath>
</defs>
</svg>
