<svg width="321" height="321" viewBox="0 0 321 321" fill="none" xmlns="http://www.w3.org/2000/svg">
<g clip-path="url(#clip0_3_40)">
<path d="M88.2197 203.253C88.2197 210.065 92.0539 213.907 98.8527 213.907H116.335C123.135 213.907 127.02 210.065 127.02 203.201V118.944C127.02 112.08 123.135 108.239 116.335 108.239H98.8527C92.0539 108.239 88.2197 112.08 88.2197 118.893V203.253ZM96.2966 210.116V221.59C96.2966 223.485 97.7791 224.919 99.6704 224.919C101.562 224.919 103.045 223.485 103.045 221.59V210.116H96.2966ZM112.195 210.116V221.59C112.195 223.485 113.627 224.919 115.518 224.919C117.409 224.919 118.943 223.485 118.943 221.59V210.116H112.195ZM107.594 132.159C104.936 132.159 102.84 130.007 102.84 127.344C102.84 124.681 104.936 122.529 107.594 122.529C110.304 122.529 112.4 124.681 112.4 127.344C112.4 130.007 110.304 132.159 107.594 132.159ZM107.594 149.01C104.936 149.01 102.84 146.859 102.84 144.196C102.84 141.532 104.936 139.381 107.594 139.381C110.304 139.381 112.4 141.532 112.4 144.196C112.4 146.859 110.304 149.01 107.594 149.01ZM107.594 165.81C104.936 165.81 102.84 163.71 102.84 161.047C102.84 158.384 104.936 156.233 107.594 156.233C110.304 156.233 112.4 158.384 112.4 161.047C112.4 163.71 110.304 165.81 107.594 165.81ZM107.594 182.662C104.936 182.662 102.84 180.511 102.84 177.848C102.84 175.184 104.936 173.084 107.594 173.084C110.304 173.084 112.4 175.184 112.4 177.848C112.4 180.511 110.304 182.662 107.594 182.662ZM107.594 199.514C104.936 199.514 102.84 197.363 102.84 194.699C102.84 192.035 104.936 189.884 107.594 189.884C110.304 189.884 112.4 192.035 112.4 194.699C112.4 197.363 110.304 199.514 107.594 199.514Z" fill="white"/>
<path d="M38.02 203.099C38.02 209.911 41.854 213.753 48.6018 213.753H66.1359C72.8838 213.753 76.7689 209.911 76.7689 203.048V118.79C76.7689 111.927 72.8838 108.085 66.1359 108.085H48.6018C41.854 108.085 38.02 111.927 38.02 118.739V203.099ZM46.097 111.875H52.8448V100.402C52.8448 98.5069 51.3112 97.0215 49.4197 97.0215C47.5283 97.0215 46.097 98.5069 46.097 100.402V111.875ZM61.9441 111.875H68.692V100.402C68.692 98.5069 67.2095 97.0215 65.318 97.0215C63.4266 97.0215 61.9441 98.5069 61.9441 100.402V111.875ZM57.3945 132.108C54.7362 132.108 52.6403 129.956 52.6403 127.293C52.6403 124.629 54.7362 122.478 57.3945 122.478C60.0527 122.478 62.1997 124.629 62.1997 127.293C62.1997 129.956 60.0527 132.108 57.3945 132.108ZM57.3945 148.908C54.7362 148.908 52.6403 146.808 52.6403 144.144C52.6403 141.43 54.7362 139.33 57.3945 139.33C60.0527 139.33 62.1997 141.43 62.1997 144.144C62.1997 146.808 60.0527 148.908 57.3945 148.908ZM57.3945 165.708C54.7362 165.708 52.6403 163.608 52.6403 160.945C52.6403 158.281 54.7362 156.181 57.3945 156.181C60.0527 156.181 62.1997 158.281 62.1997 160.945C62.1997 163.608 60.0527 165.708 57.3945 165.708ZM57.3945 182.611C54.7362 182.611 52.6403 180.46 52.6403 177.796C52.6403 175.133 54.7362 172.981 57.3945 172.981C60.0527 172.981 62.1997 175.133 62.1997 177.796C62.1997 180.46 60.0527 182.611 57.3945 182.611ZM57.3945 199.411C54.7362 199.411 52.6403 197.311 52.6403 194.596C52.6403 191.933 54.7362 189.833 57.3945 189.833C60.0527 189.833 62.1997 191.933 62.1997 194.596C62.1997 197.311 60.0527 199.411 57.3945 199.411Z" fill="white"/>
</g>
<g clip-path="url(#clip1_3_40)">
<path d="M239.833 118.503C241.576 116.808 243.831 116.859 245.523 118.503C247.163 120.199 247.214 122.46 245.523 124.155L214.794 154.875C213.72 154.761 212.609 154.727 211.485 154.727C208.587 154.727 205.782 154.947 203.103 155.417L239.833 118.503ZM226.42 156.902L252.289 130.938C253.981 129.242 256.236 129.294 257.928 130.938C259.62 132.633 259.671 134.945 257.928 136.641L234.376 160.155C231.893 158.823 229.237 157.728 226.42 156.902ZM242.424 165.725L264.694 143.372C266.386 141.676 268.641 141.728 270.333 143.372C271.973 145.067 272.025 147.38 270.333 149.075L247.887 171.485C246.275 169.365 244.452 167.434 242.424 165.725ZM253.011 179.984L277.099 155.806C278.791 154.111 281.098 154.162 282.789 155.806C284.379 157.502 284.481 159.814 282.789 161.51L255.911 188.309C255.234 185.354 254.261 182.571 253.011 179.984Z" fill="white"/>
<path d="M161.967 197.271C159.814 197.271 158.02 199.121 158.02 201.279C158.02 203.386 159.763 205.287 161.967 205.287L261.055 205.338C263.208 205.338 265.002 203.437 265.002 201.279C265.002 199.121 263.208 197.323 261.055 197.323L250.29 197.323C248.803 176.153 233.374 161.715 211.486 161.715C189.597 161.715 174.167 176.153 172.629 197.271L161.967 197.271Z" fill="white"/>
</g>
<defs>
<clipPath id="clip0_3_40">
<rect width="89" height="128" fill="white" transform="translate(38.02 97.0215)"/>
</clipPath>
<clipPath id="clip1_3_40">
<rect width="126" height="106" fill="white" transform="translate(284.02 214.021) rotate(-180)"/>
</clipPath>
</defs>
</svg>
