<svg width="321" height="321" viewBox="0 0 321 321" fill="none" xmlns="http://www.w3.org/2000/svg">
<g clip-path="url(#clip0_3_41)">
<path d="M156.758 257.23C208.32 257.23 242.695 222.367 242.695 169.828C242.695 82.4258 168.281 46 116.621 46C107.441 46 101.582 49.2227 101.582 55.4727C101.582 57.9141 102.656 60.4531 104.707 62.7969C116.328 76.6641 127.949 93.168 128.145 112.406C128.145 116.801 127.656 120.707 124.531 126.176L129.414 125.199C125.02 110.844 113.203 100.688 102.852 100.688C98.8477 100.688 96.1133 103.617 96.1133 108.012C96.1133 110.551 96.7969 116.508 96.7969 120.805C96.7969 142.68 80 155.473 80 190.727C80 230.668 110.566 257.23 156.758 257.23ZM159.004 229.789C140.742 229.789 128.633 218.754 128.633 202.348C128.633 185.16 140.84 179.008 142.402 167.973C142.598 167.094 143.184 166.801 143.867 167.387C148.359 171.391 151.289 176.273 153.73 181.938C158.906 174.906 161.348 160.062 159.688 144.047C159.59 143.168 160.176 142.68 161.055 142.973C182.441 153.031 193.574 174.32 193.574 193.363C193.574 212.699 182.246 229.789 159.004 229.789Z" fill="#FF383C"/>
</g>
<defs>
<clipPath id="clip0_3_41">
<rect width="162.695" height="229.004" fill="white" transform="translate(80 46)"/>
</clipPath>
</defs>
</svg>
