<svg width="321" height="321" viewBox="0 0 321 321" fill="none" xmlns="http://www.w3.org/2000/svg">
<g opacity="0.5" clip-path="url(#clip0_15_28)">
<path d="M130.473 242.926H192.289C195.512 242.926 197.953 240.387 197.953 237.164C197.953 234.039 195.512 231.5 192.289 231.5H130.473C127.25 231.5 124.711 234.039 124.711 237.164C124.711 240.387 127.25 242.926 130.473 242.926ZM161.332 271.246C176.469 271.246 189.066 263.824 190.043 252.594H132.719C133.402 263.824 146.098 271.246 161.332 271.246Z" fill="#FFCC00"/>
<path d="M96 104.156C96 141.656 120.707 150.934 124.711 216.07C124.906 219.586 127.055 221.832 130.766 221.832H191.898C195.707 221.832 197.758 219.586 198.051 216.07C202.055 150.934 226.664 141.656 226.664 104.156C226.664 70.4648 197.855 44 161.332 44C124.809 44 96 70.4648 96 104.156Z" fill="#FFCC00"/>
</g>
<defs>
<clipPath id="clip0_15_28">
<rect width="130.664" height="233.301" fill="white" transform="translate(96 44)"/>
</clipPath>
</defs>
</svg>
