<svg width="321" height="321" viewBox="0 0 321 321" fill="none" xmlns="http://www.w3.org/2000/svg">
<g opacity="0.5">
<g clip-path="url(#clip0_15_16)">
<path d="M100.53 159.114C103.333 159.114 105.659 156.797 105.659 153.945V141.169C105.659 138.317 103.333 136 100.53 136C97.6675 136 95.3413 138.317 95.3413 141.169V153.945C95.3413 156.797 97.6675 159.114 100.53 159.114ZM129.754 171.295C131.781 173.256 135.061 173.315 137.089 171.295L146.214 162.204C148.182 160.243 148.182 156.916 146.214 154.895C144.246 152.935 140.906 152.935 138.938 154.895L129.754 164.046C127.785 166.007 127.785 169.334 129.754 171.295ZM141.86 200.47C141.86 203.263 144.246 205.58 147.049 205.58H159.871C162.674 205.58 165 203.263 165 200.47C165 197.677 162.674 195.301 159.871 195.301H147.049C144.246 195.301 141.86 197.677 141.86 200.47ZM129.754 229.645C127.785 231.666 127.785 234.934 129.754 236.894L138.938 246.104C140.906 248.065 144.246 247.946 146.214 246.045C148.182 244.025 148.182 240.757 146.214 238.796L137.03 229.645C135.061 227.685 131.781 227.744 129.754 229.645ZM100.53 241.826C97.6675 241.826 95.3413 244.143 95.3413 246.936V259.771C95.3413 262.564 97.6675 264.881 100.53 264.881C103.333 264.881 105.659 262.564 105.659 259.771V246.936C105.659 244.143 103.333 241.826 100.53 241.826ZM71.2469 229.645C69.2192 227.744 65.8794 227.685 63.9113 229.645L54.7864 238.737C52.8184 240.697 52.8184 243.965 54.7268 245.986C56.6949 247.887 60.0944 248.006 62.0625 246.045L71.1873 236.894C73.1554 234.934 73.1554 231.666 71.2469 229.645ZM59.1401 200.47C59.1401 197.677 56.7546 195.301 53.9515 195.301H41.129C38.3259 195.301 36 197.677 36 200.47C36 203.263 38.3259 205.58 41.129 205.58H53.9515C56.7546 205.58 59.1401 203.263 59.1401 200.47ZM71.1873 171.295C73.1554 169.394 73.1554 165.947 71.2469 164.046L62.1221 154.895C60.2136 152.994 56.8142 152.935 54.8461 154.895C52.878 156.916 52.878 160.243 54.7864 162.145L63.9113 171.295C65.8794 173.256 69.1596 173.256 71.1873 171.295Z" fill="#FFCC00"/>
<path d="M100.47 230.715C117.229 230.715 130.827 217.167 130.827 200.47C130.827 183.773 117.229 170.166 100.47 170.166C83.7116 170.166 70.1138 183.773 70.1138 200.47C70.1138 217.167 83.7116 230.715 100.47 230.715Z" fill="#FFCC00"/>
</g>
<g clip-path="url(#clip1_15_16)">
<path d="M220.53 80.1142C223.333 80.1142 225.659 77.7968 225.659 74.9447V62.1695C225.659 59.3174 223.333 57 220.53 57C217.668 57 215.341 59.3174 215.341 62.1695V74.9447C215.341 77.7968 217.668 80.1142 220.53 80.1142ZM249.754 92.2952C251.781 94.2561 255.061 94.3155 257.089 92.2952L266.214 83.204C268.182 81.2432 268.182 77.9157 266.214 75.8954C264.246 73.9346 260.906 73.9346 258.938 75.8954L249.754 85.0461C247.785 87.0069 247.785 90.3344 249.754 92.2952ZM261.86 121.47C261.86 124.263 264.246 126.58 267.049 126.58H279.871C282.674 126.58 285 124.263 285 121.47C285 118.677 282.674 116.301 279.871 116.301H267.049C264.246 116.301 261.86 118.677 261.86 121.47ZM249.754 150.645C247.785 152.666 247.785 155.934 249.754 157.894L258.938 167.104C260.906 169.065 264.246 168.946 266.214 167.045C268.182 165.025 268.182 161.757 266.214 159.796L257.03 150.645C255.061 148.685 251.781 148.744 249.754 150.645ZM220.53 162.826C217.668 162.826 215.341 165.143 215.341 167.936V180.771C215.341 183.564 217.668 185.881 220.53 185.881C223.333 185.881 225.659 183.564 225.659 180.771V167.936C225.659 165.143 223.333 162.826 220.53 162.826ZM191.247 150.645C189.219 148.744 185.879 148.685 183.911 150.645L174.786 159.737C172.818 161.697 172.818 164.965 174.727 166.986C176.695 168.887 180.094 169.006 182.062 167.045L191.187 157.894C193.155 155.934 193.155 152.666 191.247 150.645ZM179.14 121.47C179.14 118.677 176.755 116.301 173.951 116.301H161.129C158.326 116.301 156 118.677 156 121.47C156 124.263 158.326 126.58 161.129 126.58H173.951C176.755 126.58 179.14 124.263 179.14 121.47ZM191.187 92.2952C193.155 90.3938 193.155 86.9475 191.247 85.0461L182.122 75.8954C180.214 73.994 176.814 73.9346 174.846 75.8954C172.878 77.9157 172.878 81.2432 174.786 83.1446L183.911 92.2952C185.879 94.2561 189.16 94.2561 191.187 92.2952Z" fill="#FFCC00"/>
<path d="M220.47 151.715C237.229 151.715 250.827 138.167 250.827 121.47C250.827 104.773 237.229 91.1662 220.47 91.1662C203.712 91.1662 190.114 104.773 190.114 121.47C190.114 138.167 203.712 151.715 220.47 151.715Z" fill="#FFCC00"/>
</g>
</g>
<defs>
<clipPath id="clip0_15_16">
<rect width="129" height="129" fill="white" transform="translate(36 136)"/>
</clipPath>
<clipPath id="clip1_15_16">
<rect width="129" height="129" fill="white" transform="translate(156 57)"/>
</clipPath>
</defs>
</svg>
