<svg width="321" height="321" viewBox="0 0 321 321" fill="none" xmlns="http://www.w3.org/2000/svg">
<path d="M55.125 127.725C55.125 102.313 55.125 89.6064 60.0706 79.9002C64.4208 71.3623 71.3623 64.4208 79.9002 60.0706C89.6064 55.125 102.313 55.125 127.725 55.125H194.275C219.687 55.125 232.394 55.125 242.099 60.0706C250.638 64.4208 257.579 71.3623 261.929 79.9002C266.875 89.6064 266.875 102.313 266.875 127.725V194.275C266.875 219.687 266.875 232.394 261.929 242.099C257.579 250.638 250.638 257.579 242.099 261.929C232.394 266.875 219.687 266.875 194.275 266.875H127.725C102.313 266.875 89.6064 266.875 79.9002 261.929C71.3623 257.579 64.4208 250.638 60.0706 242.099C55.125 232.394 55.125 219.687 55.125 194.275V127.725Z" fill="#4087FC"/>
<path d="M102.517 115.625C97.2263 115.625 92.9375 120.462 92.9375 126.429V178.826C92.9375 194.041 103.874 206.375 117.364 206.375L174.108 205.835C179.399 205.835 183.688 200.998 183.688 195.031V142.094C183.688 126.879 170.709 115.625 157.219 115.625H102.517Z" fill="white"/>
<path d="M196.636 136.252C193.213 139.637 191.25 144.522 191.25 149.656V171.582C191.25 176.716 193.213 181.602 196.636 184.986L217.937 203.747C222.271 208.032 229.062 204.561 229.062 198.06V124.21C229.062 117.708 222.271 114.238 217.937 118.523L196.636 136.252Z" fill="white"/>
</svg>
