<svg width="321" height="321" viewBox="0 0 321 321" fill="none" xmlns="http://www.w3.org/2000/svg">
<g clip-path="url(#clip0_3_52)">
<path d="M90.8209 88.345C70.136 124.44 80.0395 177.276 110.347 235.164C111.495 237.285 113.357 239.928 115.136 240.948C116.915 241.967 120.137 242.238 122.633 242.205C187.815 239.039 238.408 220.872 259.093 184.777C276.282 154.783 267.832 121.802 240.379 106.069C224.705 97.0866 207.722 97.2591 193.457 104.279C192.423 88.6039 183.865 73.6826 168.19 64.6997C140.738 48.9676 108.01 58.3508 90.8209 88.345ZM104.462 96.1625C117.378 73.6245 140.546 66.979 160.203 78.244C176.132 87.3726 179.602 102.53 180.169 114.11C180.515 118.811 181.421 120.568 183.454 121.733C185.488 122.899 187.341 122.61 191.692 120.714C202.298 115.761 216.887 110.728 232.732 119.808C252.389 131.073 258.368 154.422 245.452 176.96C227.389 208.48 174.62 223.373 125.704 226.631C124.517 226.739 123.681 226.823 123.342 226.628C123.003 226.434 122.653 225.671 122.23 224.64C100.227 180.741 86.3993 127.682 104.462 96.1625Z" fill="white" fill-opacity="0.85"/>
</g>
<defs>
<clipPath id="clip0_3_52">
<rect width="193.945" height="185.254" fill="white" transform="translate(123.111 32) rotate(29.8158)"/>
</clipPath>
</defs>
</svg>
